PathFileType	4	(X/Y/Z)	RBDS016\RBDS016runT35.trc
DataRate	CameraRate	NumFrames	NumMarkers	Units	OrigDataRate	OrigDataStartFrame	OrigNumFrames
150.000000	150.000000	4	33	mm	150.000000	3375	4500
Frame#	Time	L.ASIS			L.Heel.Bottom			L.Heel.Lateral			L.Heel.Top			L.Iliac.Crest			L.MT1			L.MT5			L.PSIS			L.Shank.Bottom.Lateral			L.Shank.Bottom.Medial			L.Shank.Top.Lateral			L.Shank.Top.Medial			L.Thigh.Bottom.Lateral			L.Thigh.Bottom.Medial			L.Thigh.Top.Lateral			L.Thigh.Top.Medial			R.ASIS			R.ASY			R.Heel.Bottom			R.Heel.Lateral			R.Heel.Top			R.Iliac.Crest			R.MT1			R.MT5			R.PSIS			R.Shank.Bottom.Lateral			R.Shank.Bottom.Medial			R.Shank.Top.Lateral			R.Shank.Top.Medial			R.Thigh.Bottom.Lateral			R.Thigh.Bottom.Medial			R.Thigh.Top.Lateral			R.Thigh.Top.Medial			
		X1	Y1	Z1	X2	Y2	Z2	X3	Y3	Z3	X4	Y4	Z4	X5	Y5	Z5	X6	Y6	Z6	X7	Y7	Z7	X8	Y8	Z8	X9	Y9	Z9	X10	Y10	Z10	X11	Y11	Z11	X12	Y12	Z12	X13	Y13	Z13	X14	Y14	Z14	X15	Y15	Z15	X16	Y16	Z16	X17	Y17	Z17	X18	Y18	Z18	X19	Y19	Z19	X20	Y20	Z20	X21	Y21	Z21	X22	Y22	Z22	X23	Y23	Z23	X24	Y24	Z24	X25	Y25	Z25	X26	Y26	Z26	X27	Y27	Z27	X28	Y28	Z28	X29	Y29	Z29	X30	Y30	Z30	X31	Y31	Z31	X32	Y32	Z32	X33	Y33	Z33	

3376	22.5	2541.148942765436	925.9570106998806	898.0745606101959	2604.99360374361	22.86012706943996	986.8939358277053	2618.490418981103	39.66878535007153	939.1198858025888	2604.289840613743	68.98133209009151	979.4190181978441	2456.107153517657	984.2097580725947	843.6401953342615	2810.252851297626	98.62562834997753	978.1536391523753	2764.382999968997	62.731092255632	885.4771935163056	2359.882994300398	947.2123278500304	968.7085079840826	2619.816084540763	159.8693917622796	907.2818084655447	2599.301686110197	165.5425652802433	958.9776823599691	2595.338652790341	234.8107113877522	891.2451042620065	2576.952969771806	241.3371842428832	941.4556070086851	2559.208144315715	557.980859061513	842.3231103225032	2500.983023586565	539.7964352426001	882.2106476276643	2515.63907781517	657.5574139441691	824.5449738379911	2460.858248443058	640.1063981926435	863.6358423332985	2551.258592291385	913.7602819732062	1119.898316513174	1950.771648942935	287.2146060277227	1085.965922533981	1925.507381037841	462.6985058045158	1006.226476438108	1934.884085368183	449.8365939152456	1058.285975412058	1973.022138811045	449.5147690267244	1020.97516305643	2490.949675337758	992.2101773479246	1162.735115962134	1923.36010545161	249.0648312926333	1048.910188068772	1891.330928676581	314.6079411740964	1130.698672737583	2368.872786618655	954.4656088129824	1069.338249064312	2032.553648236808	423.485706111097	1107.542791234299	2034.853833828028	454.7079011405995	1066.74174255274	2110.188006577149	449.3456568290325	1129.902848803892	2108.321183286331	481.6903211166696	1087.792753715807	2369.276602332492	556.4842165331396	1168.386560570982	2322.141317732306	570.6985647260559	1115.387425457554	2382.437666487178	664.9945070066283	1184.017939358703	2336.992036258939	678.1144319332379	1134.097150391435	
3377	22.50666666666667	2539.371489587078	922.908423971669	896.7887953251219	2584.062618315253	22.83570190014287	987.4241863090318	2598.988202563977	39.89253359299004	940.2265824267085	2586.577059995415	69.16617986773187	981.1232213917245	2451.93342390497	978.4848677626358	843.182029256899	2794.084290889869	86.56908792803684	981.4529383484522	2746.518134478551	55.80173915709005	887.5616367334605	2357.285333605575	939.5478094896766	970.1410223819596	2607.83039031452	156.4124037937686	909.0893029076485	2586.71164867265	163.0600321949638	960.4597902105399	2586.739382041256	232.2530431772429	892.5195609231453	2567.819781933308	239.6328825224955	942.3990771278361	2560.007243273187	554.5625405284462	843.1742140285111	2501.227221003146	536.0424228339319	882.0778603484882	2516.381060475552	653.9520629639557	824.8061066159424	2460.848356624963	636.1428002493091	862.8123888410793	2549.79778360753	908.1984628589411	1119.457173768603	1956.484195626307	293.5074100832466	1087.577114912313	1937.02688077831	469.6193486830059	1007.457381421355	1946.233224585833	456.5899325863693	1059.639680398232	1984.187369328355	454.7173562023308	1021.983712545475	2489.208910089349	985.1225941848062	1163.406478367655	1927.393617781548	256.3268327389387	1050.7889585756	1898.255016584006	323.1867104863458	1132.588880167914	2366.753083908533	945.523100595484	1070.621344201902	2042.796793624959	426.3672572906453	1108.797618638164	2046.196083478187	457.5522148900716	1068.060596514542	2121.271412214254	449.2504773473697	1131.192183655369	2120.610020666716	481.7069569338976	1089.133806924598	2376.354372086336	547.8958567389122	1169.294730776514	2328.386826367046	560.7157163775831	1116.676137782314	2386.757969635876	656.8199549348493	1184.578875112479	2340.673366582791	668.5917214210147	1134.87347702321	
3378	22.51333333333334	2537.407016900923	919.6189977576323	895.5241498392287	2562.289338512732	23.28939267748001	988.0094399224887	2578.542818430944	40.68980864877891	941.4096323574155	2567.816405709761	69.74276575779928	982.9433560115207	2447.63433312803	972.7570033780606	842.7049348785876	2776.53903917056	75.61726356270817	984.5813681873583	2727.402565674843	50.1343886383904	889.5057963564917	2354.546662425663	932.1189475645542	971.7466613522602	2594.885197380725	153.75040980383	911.0923419811169	2573.278854965767	161.4398053243894	962.1541314271528	2577.457431442308	230.3996297383715	894.0585412327368	2558.132989667952	238.6983483922873	943.6309878282758	2560.502098047463	551.0625827743308	843.8663719950969	2501.279719018645	532.2592490884488	881.9774969569789	2516.737968055967	650.2033615278979	824.8548959994488	2460.574356170181	632.0925023100978	861.9553181848892	2548.198923981363	902.2107812196659	1119.0601136934	1963.831600332569	298.847836315675	1089.348236888528	1949.360734886883	475.295446144458	1008.892794603249	1958.559689579027	462.1345189009207	1061.206830211348	1996.181868188831	458.9082133660849	1023.121212119012	2487.594455962354	977.5041807582177	1164.099098983776	1933.194493139214	262.6032154826912	1052.870043834775	1906.915211385755	330.4958746794272	1134.76846567426	2364.371916682063	936.5290298688155	1071.973460467636	2054.074679213741	428.4637295090767	1110.122763977982	2058.492016263262	459.5931395688203	1069.471219925822	2133.262466873266	448.5141883669533	1132.488913358481	2133.718630584736	481.027709445715	1090.470406499349	2383.643389081014	539.5499133487504	1170.135873179248	2334.886728496613	550.8588471624057	1117.877743551004	2391.128730391289	648.8381134674955	1184.992356273477	2344.551765086029	659.1487771910057	1135.422295838901	
3379	22.52	2535.24174981123	916.0636444630624	894.2906241827758	2539.989500661147	24.14088424680014	988.664653987957	2557.406565582875	41.96899063330576	942.6555728834342	2548.201716588844	70.63452807826401	984.8413559257828	2443.252826050088	967.0759177327843	842.216922323898	2757.76444802941	66.17604857394123	987.3941157771917	2707.226138017114	45.88372306530452	891.2456079619931	2351.672339387717	925.0837618646416	973.4390282968476	2581.033245935789	151.9696587945922	913.234442244526	2559.102376663945	160.7394818684862	964.022129000349	2567.492738210816	229.3040744065576	895.8428282612235	2547.931398570528	238.5612255447393	945.1503665047774	2560.598102761212	547.5285782744522	844.4356442842776	2501.066127847374	528.4946601009005	881.9797827983784	2516.598816561432	646.3664554520881	824.757218579309	2459.9521729128	628.0081907333843	861.1649171465197	2546.452512215804	895.9161341185601	1118.71962482893	1972.748970323713	303.1492911759789	1091.215044110024	1962.335149246352	479.7745755547966	1010.596397389548	1971.707240391946	466.4777249970716	1063.021580713174	2008.85877701264	462.1341289483143	1024.433999028646	2485.988175740091	969.4776988824126	1164.821323856877	1940.685422397999	267.7964853033848	1055.090670714507	1917.201814509936	336.4032475248474	1137.209877109196	2361.7249431036	927.698985330869	1073.304659278324	2066.299393043652	429.7966831216498	1111.52569889633	2071.636742782452	460.874090117818	1070.98820946221	2146.093937407638	447.1905307967529	1133.795605715353	2147.559294861206	479.7233769412788	1091.811857759997	2391.211405414231	531.5667717319236	1170.875433356295	2341.742349493823	541.248456418828	1118.935749234925	2395.598798821439	641.1463265008181	1185.236857612082	2348.681788306435	649.889664303661	1135.722374963148	
